<?xml version="1.0" encoding="UTF-8"?>
<svg version="1.1" xmlns="http://www.w3.org/2000/svg" width="1200" height="628">
<path d="M0 0 C396 0 792 0 1200 0 C1200 207.24 1200 414.48 1200 628 C804 628 408 628 0 628 C0 420.76 0 213.52 0 0 Z " fill="#000000" transform="translate(0,0)"/>
<path d="M0 0 C0.845625 0.42925781 1.69125 0.85851562 2.5625 1.30078125 C25.37608508 13.15569778 43.05205548 33.29636474 57 54.375 C57.38607422 54.94573242 57.77214844 55.51646484 58.16992188 56.10449219 C60.50699576 59.71575735 61.58649192 62.72277583 62 67 C62.66 67 63.32 67 64 67 C78.12179219 104.49880552 78.12179219 104.49880552 78 123 C79.2689209 122.97905273 80.5378418 122.95810547 81.84521484 122.93652344 C86.64245909 122.86303803 91.43965591 122.81781373 96.23730469 122.78027344 C98.29696064 122.76040125 100.35656207 122.7332939 102.41601562 122.69824219 C118.81674963 122.42649513 135.0275047 123.08372711 149.9375 130.75 C150.63367432 131.09361572 151.32984863 131.43723145 152.04711914 131.79125977 C169.79236471 140.81074967 186.40944356 155.96757072 195 174 C195.65935547 175.27423828 195.65935547 175.27423828 196.33203125 176.57421875 C205.7767575 195.66340866 207.55089311 219.66964206 201 240 C200.63261719 241.16789062 200.26523437 242.33578125 199.88671875 243.5390625 C191.0676667 268.25322017 172.93356698 286.47372166 149.625 297.875 C135.87874601 303.84514211 122.46760604 305.60148804 107.58984375 305.390625 C105.99989038 305.38313559 104.40992758 305.3774555 102.81996155 305.37347412 C98.6984465 305.35842951 94.57752379 305.31933994 90.45623779 305.2746582 C86.22546393 305.23323933 81.99459139 305.21536514 77.76367188 305.1953125 C69.50884714 305.15281724 61.25449788 305.08483465 53 305 C54.73616929 301.30752161 56.89450174 298.7440257 59.6875 295.75 C62.6651014 292.53350795 65.63083847 289.31425819 68.5 286 C72.91228609 280.92110953 77.46240415 275.96670451 82 271 C78.39416397 274.07998494 74.80243376 277.17109164 71.25 280.3125 C68.10150545 283.07806954 64.88155358 285.73765027 61.625 288.375 C57.11988653 292.03618037 52.80399187 295.85485018 48.515625 299.765625 C45.98669705 302.01181566 43.38950086 304.13531218 40.75 306.25 C35.68109226 310.34521925 30.94643238 314.7233457 26.20776367 319.18896484 C21.75654007 323.36026424 17.14178042 327.21036502 12.37890625 331.0234375 C9.68561274 333.26121503 7.29203779 335.67960763 4.86328125 338.1953125 C1.71166015 341.24782602 -1.74947902 343.92149817 -5.1640625 346.671875 C-8.76698092 349.62964274 -12.21311109 352.73835227 -15.66015625 355.875 C-19.06387169 358.96618731 -22.53205502 361.98134344 -26 365 C-28.00463624 366.75307404 -30.00829257 368.50726204 -32.01171875 370.26171875 C-33.30404447 371.39155165 -34.5982169 372.51927694 -35.89453125 373.64453125 C-39.75314928 377.00019296 -43.54728871 380.41464246 -47.3125 383.875 C-50.93523905 387.18336914 -54.61692891 390.36012358 -58.4375 393.4375 C-63.56250846 397.57411397 -68.39563155 401.96319216 -73.22265625 406.4375 C-76.1104016 409.10186139 -79.04969384 411.69380703 -82.01953125 414.265625 C-84.31133155 416.27264538 -86.55996752 418.32402851 -88.8125 420.375 C-92.25378205 423.48528851 -95.76321298 426.46478312 -99.375 429.375 C-103.92860712 433.05636689 -108.23582516 436.92774473 -112.51904297 440.91357422 C-115.75176204 443.90412641 -119.06687666 446.73771685 -122.5 449.5 C-127.5973611 453.60436867 -132.39753598 457.96584197 -137.1953125 462.41015625 C-146.49186257 470.99457505 -146.49186257 470.99457505 -151 474 C-149.24009216 468.08030998 -146.60305395 462.58365008 -144 457 C-143.34 457 -142.68 457 -142 457 C-141.90122559 456.14978271 -141.80245117 455.29956543 -141.70068359 454.42358398 C-140.91659537 450.59247975 -139.56972446 447.70225198 -137.7890625 444.22265625 C-137.46514526 443.58321579 -137.14122803 442.94377533 -136.80749512 442.28495789 C-136.11358753 440.91693059 -135.4161169 439.5507057 -134.71539307 438.18615723 C-132.86721435 434.58663132 -131.04487443 430.97403073 -129.21875 427.36328125 C-128.85419708 426.64429657 -128.48964417 425.92531189 -128.11404419 425.18453979 C-125.02551289 419.08294735 -122.04912851 412.93208873 -119.125 406.75 C-115.27823306 398.62800743 -111.32598672 390.5675161 -107.25830078 382.55371094 C-105.00369921 378.09366472 -102.91534578 373.61647444 -101 369 C-100.34 369 -99.68 369 -99 369 C-99 368.01 -99 367.02 -99 366 C-126.06 366 -153.12 366 -181 366 C-180.0908018 362.3632072 -179.05345308 360.04283199 -177.234375 356.82421875 C-176.67363281 355.83099609 -176.11289063 354.83777344 -175.53515625 353.81445312 C-174.94605469 352.78255859 -174.35695312 351.75066406 -173.75 350.6875 C-173.17636719 349.66720703 -172.60273438 348.64691406 -172.01171875 347.59570312 C-169.57833512 343.30818094 -167.15855042 339.08779639 -164.24609375 335.10546875 C-162.23310021 332.32228637 -160.7545714 329.72750062 -159.3125 326.625 C-156.73525492 321.27748455 -153.82642881 316.18659 -150.79296875 311.0859375 C-150.09995667 309.91454224 -150.09995667 309.91454224 -149.39294434 308.71948242 C-148.26395119 306.81179782 -147.13293541 304.90534507 -146 303 C-146.57793053 303.00276538 -147.15586105 303.00553076 -147.75130463 303.00837994 C-161.8853095 303.07495146 -176.01929054 303.12443095 -190.15341949 303.15543652 C-196.98889333 303.17083334 -203.82426181 303.19178329 -210.65966797 303.22631836 C-217.26678714 303.25968381 -223.87382633 303.27689664 -230.48103333 303.28463173 C-232.99096896 303.2901381 -235.50089922 303.30088974 -238.01078796 303.31719017 C-266.51912304 303.49482917 -289.69101499 298.84204815 -312 280 C-314.50426436 277.4732254 -316.75002469 274.75411916 -319 272 C-319.64195312 271.21882813 -320.28390625 270.43765625 -320.9453125 269.6328125 C-335.60694276 250.71643463 -341.74050551 227.48823633 -339.7265625 203.78125 C-336.14989502 178.67709338 -322.36820893 159.76096554 -302.96875 144.390625 C-283.85315509 130.55321675 -260.67349405 129.28370493 -238 130 C-237.82984375 131.20914063 -237.6596875 132.41828125 -237.484375 133.6640625 C-235.48069648 147.40921254 -232.43872031 160.2363305 -226.93041992 173.02832031 C-225.53051154 176.33547433 -225 178.3245102 -225 182 C-224.34 182 -223.68 182 -223 182 C-222.31164062 183.32064453 -222.31164062 183.32064453 -221.609375 184.66796875 C-220.99578125 185.82941406 -220.3821875 186.99085938 -219.75 188.1875 C-219.14671875 189.33605469 -218.5434375 190.48460937 -217.921875 191.66796875 C-216.11100643 195.01352767 -216.11100643 195.01352767 -213.765625 197.73828125 C-212 200 -212 200 -212 203 C-211.34 203 -210.68 203 -210 203 C-210.1868335 202.33282959 -210.37366699 201.66565918 -210.56616211 200.97827148 C-222.46784023 157.98726188 -226.23877593 110.27206411 -205.58203125 69.18359375 C-204.20809402 66.4187571 -203.10273177 63.7132344 -202.0625 60.8125 C-196.34122159 46.09365555 -183.5252579 31.60323727 -172 21 C-171.34 21 -170.68 21 -170 21 C-170 20.34 -170 19.68 -170 19 C-167.99765261 17.21979753 -165.99367274 15.56992455 -163.875 13.9375 C-163.24625977 13.45015381 -162.61751953 12.96280762 -161.96972656 12.46069336 C-153.40220435 5.91137916 -144.62395045 -0.45658487 -134.3984375 -4.11328125 C-131.81774597 -5.06738056 -129.40967968 -6.23110601 -126.9375 -7.4375 C-119.54300601 -10.81754297 -111.85894406 -12.99085314 -104 -15 C-102.7521875 -15.32355469 -101.504375 -15.64710937 -100.21875 -15.98046875 C-65.89686088 -23.40990207 -30.47293763 -16.54144415 0 0 Z " fill="#010101" transform="translate(381,51)"/>
<path d="M0 0 C1.35986778 -0.00855011 1.35986778 -0.00855011 2.74720764 -0.01727295 C4.66259612 -0.02668432 6.57800051 -0.03324149 8.4934082 -0.03710938 C11.37025694 -0.04674141 14.24636759 -0.07777128 17.12304688 -0.109375 C28.29400243 -0.17337206 38.58817323 0.60711545 49.47265625 3.203125 C50.12469528 3.35763123 50.77673431 3.51213745 51.4485321 3.67132568 C64.29641874 6.73727956 76.70319342 11.01785821 88.41015625 17.16796875 C91.01439906 18.47502243 93.67692756 19.39383512 96.47265625 20.203125 C96.47265625 20.863125 96.47265625 21.523125 96.47265625 22.203125 C97.2925 22.41839844 98.11234375 22.63367188 98.95703125 22.85546875 C103.3981962 24.55791532 106.88289955 26.99499385 110.72265625 29.765625 C111.84873291 30.5692749 111.84873291 30.5692749 112.99755859 31.38916016 C118.87436743 35.64119674 124.19610581 40.22581183 129.47265625 45.203125 C130.69580056 46.23116653 131.92449908 47.2526577 133.16015625 48.265625 C137.02309448 51.55995316 140.22874581 55.31043247 143.47265625 59.203125 C144.065625 59.8734375 144.65859375 60.54375 145.26953125 61.234375 C155.89977992 73.70954286 164.72089027 89.26268857 170.41015625 104.640625 C170.66249023 105.31875244 170.91482422 105.99687988 171.17480469 106.69555664 C180.66712397 132.70415418 180.66712397 132.70415418 180.47265625 145.203125 C181.35300537 145.18217773 182.23335449 145.16123047 183.14038086 145.13964844 C215.67639041 144.46753109 215.67639041 144.46753109 229.47265625 149.203125 C230.14635254 149.42274902 230.82004883 149.64237305 231.51416016 149.86865234 C240.84298854 152.92916651 249.18576127 156.88104289 257.47265625 162.203125 C258.24867188 162.68523437 259.0246875 163.16734375 259.82421875 163.6640625 C269.16344254 169.63720563 277.51225036 176.56766816 284.47265625 185.203125 C285.106875 185.93917969 285.74109375 186.67523438 286.39453125 187.43359375 C294.49645568 197.05855436 300.04219863 207.63391622 304.78515625 219.203125 C305.11064453 219.98478027 305.43613281 220.76643555 305.77148438 221.57177734 C310.41517961 233.34272416 311.97322566 244.98337797 311.78515625 257.578125 C311.77170166 258.84962402 311.75824707 260.12112305 311.74438477 261.43115234 C311.19761022 295.77913389 297.86158769 321.39134813 274.1015625 345.62109375 C262.45935084 356.71358884 246.53474259 366.91342333 230.47265625 369.203125 C230.47265625 369.863125 230.47265625 370.523125 230.47265625 371.203125 C216.33900911 375.54461211 201.69886256 375.46057708 187.04745865 375.41819382 C181.7098326 375.41100389 176.37258997 375.46285459 171.03515625 375.50390625 C164.29357833 375.55256463 157.55325354 375.58380125 150.81152344 375.55322266 C145.3118521 375.52983112 139.81520457 375.56481445 134.31600571 375.63811111 C132.23743056 375.65524621 130.15856229 375.65132694 128.08008194 375.625103 C116.23197863 375.09020118 116.23197863 375.09020118 105.85296631 379.82745361 C103.02400458 382.68942904 100.79054099 385.91894866 98.47265625 389.203125 C96.93327229 390.6674289 95.35656526 392.09510061 93.72265625 393.453125 C90.18847641 396.49050732 87.16227504 399.71830357 84.1484375 403.265625 C80.37848914 407.62435318 76.25526533 411.56784637 71.8671875 415.296875 C65.9278555 420.46683865 60.50719218 426.15857043 55.01171875 431.79101562 C54.19703125 432.61666016 53.38234375 433.44230469 52.54296875 434.29296875 C51.80836426 435.04441162 51.07375977 435.79585449 50.31689453 436.57006836 C48.47265625 438.203125 48.47265625 438.203125 46.47265625 438.203125 C46.23546875 438.76515625 45.99828125 439.3271875 45.75390625 439.90625 C44.18317928 442.72206542 42.25794161 444.68267916 39.97265625 446.953125 C39.17859375 447.75234375 38.38453125 448.5515625 37.56640625 449.375 C35.47265625 451.203125 35.47265625 451.203125 33.47265625 451.203125 C33.25480469 451.75871094 33.03695313 452.31429688 32.8125 452.88671875 C31.0541038 455.92674484 28.6481055 457.98186297 26.03515625 460.265625 C20.68087614 465.03706515 15.63183296 470.02368827 10.65234375 475.18359375 C8.47265625 477.203125 8.47265625 477.203125 6.47265625 477.203125 C6.26898438 477.73292969 6.0653125 478.26273437 5.85546875 478.80859375 C3.87160903 482.24392146 1.17017957 484.75404252 -1.65234375 487.515625 C-2.19632812 488.05896484 -2.7403125 488.60230469 -3.30078125 489.16210938 C-6.23749029 492.0679418 -9.2429259 494.84875338 -12.375 497.54296875 C-17.08791937 501.62451123 -21.45688604 506.02296062 -25.83984375 510.453125 C-27.03577148 511.65582031 -27.03577148 511.65582031 -28.25585938 512.8828125 C-29.72553607 514.36114162 -31.19417515 515.84050365 -32.66137695 517.32128906 C-33.277146 517.94229492 -33.89291504 518.56330078 -34.52734375 519.203125 C-35.06254639 519.78030273 -35.59774902 520.35748047 -36.14916992 520.95214844 C-37.52734375 522.203125 -37.52734375 522.203125 -39.52734375 522.203125 C-39.77613281 522.78964844 -40.02492188 523.37617187 -40.28125 523.98046875 C-41.71604321 526.53970805 -43.21997435 527.87583161 -45.46484375 529.765625 C-51.8013948 535.30663826 -57.66988994 541.29160345 -63.57397461 547.28735352 C-67.77089539 551.52842051 -72.0367819 555.57857861 -76.5625 559.46533203 C-80.10121782 562.59512744 -83.39630524 565.96830323 -86.71484375 569.328125 C-87.39998047 570.01777344 -88.08511719 570.70742188 -88.79101562 571.41796875 C-90.11651044 572.75239375 -91.44101768 574.08780063 -92.7644043 575.42431641 C-95.01125635 577.69139355 -97.27035922 579.94614047 -99.52734375 582.203125 C-100.38972656 583.07710937 -101.25210938 583.95109375 -102.140625 584.8515625 C-106.75685659 589.51455765 -111.40551774 594.04306909 -116.40234375 598.30078125 C-120.97346494 602.39294305 -125.22622275 606.83084575 -129.52734375 611.203125 C-130.52734375 609.203125 -130.52734375 609.203125 -129.9699707 607.33056641 C-129.65503662 606.57952637 -129.34010254 605.82848633 -129.015625 605.0546875 C-128.66951172 604.21292969 -128.32339844 603.37117187 -127.96679688 602.50390625 C-127.59490234 601.62089844 -127.22300781 600.73789062 -126.83984375 599.828125 C-124.6044415 594.47460226 -122.47143473 589.14796448 -120.69921875 583.62109375 C-118.05925788 575.53535993 -114.73463546 567.73660309 -111.46484375 559.890625 C-110.83361693 558.36668861 -110.20275547 556.84260082 -109.57226562 555.31835938 C-108.41353871 552.52082596 -107.25379031 549.72373136 -106.08959961 546.9284668 C-105.82895721 546.30104584 -105.56831482 545.67362488 -105.29977417 545.02719116 C-104.563796 543.28920566 -103.78977321 541.56747696 -103.01391602 539.84692383 C-101.85742602 537.01220332 -100.93902269 534.32569181 -100.09326172 531.39746094 C-98.56297377 526.13789464 -96.58450228 521.14338556 -94.47265625 516.09375 C-94.08923065 515.16447693 -93.70580505 514.23520386 -93.3107605 513.277771 C-92.09581121 510.33432666 -90.87467974 507.39350868 -89.65234375 504.453125 C-88.04671962 500.58500135 -86.4445862 496.71547146 -84.84765625 492.84375 C-84.45878235 491.9010022 -84.06990845 490.95825439 -83.66925049 489.98693848 C-81.69799305 485.17458568 -79.82915236 480.35944432 -78.14453125 475.4375 C-74.07174782 464.17959713 -69.19210002 453.22891254 -64.52734375 442.203125 C-93.89734375 442.203125 -123.26734375 442.203125 -153.52734375 442.203125 C-147.34989906 429.84823563 -141.10304906 417.87279193 -133.77734375 406.203125 C-130.02993636 400.18523542 -126.63833189 393.99781281 -123.26171875 387.765625 C-122.7085498 386.74791016 -122.15538086 385.73019531 -121.58544922 384.68164062 C-120.23122058 382.18962593 -118.8785616 379.69677309 -117.52734375 377.203125 C-118.3687793 377.21200745 -119.21021484 377.22088989 -120.07714844 377.2300415 C-128.07768985 377.3107965 -136.07809083 377.37139488 -144.07894897 377.41037369 C-148.19050745 377.43108803 -152.3017241 377.45910249 -156.41308594 377.50488281 C-160.39427967 377.54892707 -164.37514848 377.57238287 -168.35656738 377.58263397 C-169.86174625 377.58992197 -171.36691103 377.60414695 -172.87194824 377.62604523 C-183.6945412 377.77698895 -193.14603466 376.2365418 -203.52734375 373.203125 C-205.03885652 372.80130769 -206.55052893 372.40008934 -208.0625 372 C-237.47567011 363.27050987 -260.81359822 342.45883654 -275.96484375 316.015625 C-277.17459772 313.75656864 -278.36324267 311.48604176 -279.52734375 309.203125 C-280.35685547 307.68525391 -280.35685547 307.68525391 -281.203125 306.13671875 C-294.07837029 280.09869167 -292.22980724 244.74440481 -283.27734375 217.765625 C-276.55659248 200.56296807 -266.48204004 185.31680248 -253.52734375 172.203125 C-252.6971875 171.34847656 -251.86703125 170.49382812 -251.01171875 169.61328125 C-226.48437219 145.80068865 -195.48218665 138.59374821 -162.38452148 138.99926758 C-159.0982342 139.05276192 -155.81297271 139.11905222 -152.52734375 139.203125 C-152.48851074 138.60669189 -152.44967773 138.01025879 -152.40966797 137.39575195 C-151.8780358 130.79262418 -150.52463516 124.73358296 -148.65234375 118.390625 C-148.26755859 117.01874023 -148.26755859 117.01874023 -147.875 115.61914062 C-146.55196695 111.0483606 -145.1642448 107.20595541 -142.52734375 103.203125 C-141.9319341 101.73689595 -141.36964324 100.25681673 -140.83984375 98.765625 C-130.83253515 73.15756915 -111.09815917 49.92853398 -89.52734375 33.203125 C-88.57432373 32.46231689 -88.57432373 32.46231689 -87.60205078 31.70654297 C-76.94021244 23.53842904 -65.88710019 17.41877639 -53.52734375 12.203125 C-52.84849121 11.91211914 -52.16963867 11.62111328 -51.47021484 11.32128906 C-35.28261919 4.48214066 -17.59363172 0.08752793 0 0 Z M-52.21875 41.02734375 C-54.52734375 42.203125 -54.52734375 42.203125 -57.84765625 43.5546875 C-61.81816902 45.23580931 -65.28467681 47.46882132 -68.83984375 49.890625 C-69.81062866 50.54611328 -69.81062866 50.54611328 -70.80102539 51.21484375 C-79.00322908 56.78242031 -79.00322908 56.78242031 -86.52734375 63.203125 C-86.52734375 63.863125 -86.52734375 64.523125 -86.52734375 65.203125 C-87.10226563 65.45449219 -87.6771875 65.70585938 -88.26953125 65.96484375 C-110.17031822 77.97617501 -123.10926752 111.12427541 -129.90234375 133.515625 C-139.85667477 167.65286956 -138.11487981 202.81321264 -129.11279297 236.97705078 C-128.21843442 240.37770183 -127.3755617 243.79070899 -126.52734375 247.203125 C-127.18734375 247.203125 -127.84734375 247.203125 -128.52734375 247.203125 C-128.62273437 246.65398437 -128.718125 246.10484375 -128.81640625 245.5390625 C-129.71664655 242.5811301 -131.19353702 240.40215032 -132.90234375 237.828125 C-135.37820218 234.03045303 -137.63598373 230.31961446 -139.52734375 226.203125 C-140.18734375 226.203125 -140.84734375 226.203125 -141.52734375 226.203125 C-141.68783203 224.92888672 -141.68783203 224.92888672 -141.8515625 223.62890625 C-142.58424619 219.91466582 -143.82921591 216.85933246 -145.33984375 213.390625 C-150.57482746 200.83577662 -152.90676148 187.65822251 -154.52734375 174.203125 C-169.3582712 173.73459023 -183.28324102 173.72462982 -197.52734375 178.203125 C-198.51202637 178.50863281 -198.51202637 178.50863281 -199.51660156 178.8203125 C-221.619123 185.97080371 -237.76801447 202.22319512 -248.2421875 222.52734375 C-252.64773741 231.62927449 -255.96144467 241.03358567 -256.52734375 251.203125 C-256.59179688 252.33105469 -256.65625 253.45898438 -256.72265625 254.62109375 C-257.40640833 277.70912216 -249.29591526 299.48083918 -234.52734375 317.203125 C-234.02976562 317.85796875 -233.5321875 318.5128125 -233.01953125 319.1875 C-221.34260896 333.85700037 -201.6866933 343.17239218 -183.52734375 346.203125 C-182.71071259 346.37553207 -181.89408142 346.54793915 -181.05270386 346.72557068 C-176.12301631 347.3933588 -171.25857261 347.33360392 -166.28955078 347.31665039 C-165.16701401 347.31679642 -164.04447723 347.31694244 -162.88792419 347.3170929 C-159.18698172 347.31639765 -155.48608991 347.30862337 -151.78515625 347.30078125 C-149.21540352 347.29891569 -146.64565043 347.29749244 -144.07589722 347.29649353 C-138.00933228 347.29306881 -131.94278817 347.28519168 -125.87623107 347.27514404 C-118.96691515 347.26395005 -112.05759835 347.25846418 -105.14827561 347.25344861 C-90.94128862 347.24300815 -76.73431683 347.22542922 -62.52734375 347.203125 C-62.84321945 347.74694321 -63.15909515 348.29076141 -63.48454285 348.85105896 C-64.93059535 351.34165106 -66.37546256 353.83292884 -67.8203125 356.32421875 C-68.31720581 357.17963257 -68.81409912 358.03504639 -69.3260498 358.91638184 C-71.88841417 363.33648693 -74.41750034 367.76658712 -76.83984375 372.265625 C-78.58870842 375.51108147 -80.39356679 378.70193374 -82.296875 381.859375 C-83.08276001 383.16370483 -83.08276001 383.16370483 -83.88452148 384.49438477 C-85.49536149 387.15039158 -87.11542465 389.8005406 -88.73828125 392.44921875 C-89.26035156 393.30580078 -89.78242188 394.16238281 -90.3203125 395.04492188 C-91.39350393 396.80575078 -92.47180427 398.56347414 -93.5546875 400.31835938 C-94.06902344 401.16591797 -94.58335937 402.01347656 -95.11328125 402.88671875 C-95.8101001 404.02451782 -95.8101001 404.02451782 -96.52099609 405.18530273 C-97.75049568 407.27475764 -97.75049568 407.27475764 -97.52734375 410.203125 C-70.46734375 410.203125 -43.40734375 410.203125 -15.52734375 410.203125 C-15.52734375 411.193125 -15.52734375 412.183125 -15.52734375 413.203125 C-16.18734375 413.203125 -16.84734375 413.203125 -17.52734375 413.203125 C-17.76782944 413.75555878 -18.00831512 414.30799255 -18.25608826 414.87716675 C-20.59070089 420.19175444 -23.06761544 425.40684117 -25.6875 430.5859375 C-26.48408435 432.17055539 -27.28063248 433.75519148 -28.07714844 435.33984375 C-28.48783569 436.15501465 -28.89852295 436.97018555 -29.32165527 437.81005859 C-35.69187404 450.4585207 -42.01596267 463.12110385 -48.06396484 475.92749023 C-49.90837441 479.83123153 -51.76998965 483.71753309 -53.7421875 487.55859375 C-54.07895508 488.21537109 -54.41572266 488.87214844 -54.76269531 489.54882812 C-55.6281251 491.22288 -56.50484947 492.89108083 -57.3828125 494.55859375 C-58.79213637 497.33468642 -58.79213637 497.33468642 -58.52734375 501.203125 C-59.18734375 501.203125 -59.84734375 501.203125 -60.52734375 501.203125 C-61.72451034 503.65716724 -62.91027835 506.11564179 -64.08984375 508.578125 C-64.43208984 509.27679687 -64.77433594 509.97546875 -65.12695312 510.6953125 C-65.98765087 512.50364716 -66.76386811 514.35164456 -67.52734375 516.203125 C-67.19734375 516.863125 -66.86734375 517.523125 -66.52734375 518.203125 C-65.4624752 517.31010844 -64.40059334 516.4135303 -63.33984375 515.515625 C-62.74816406 515.01675781 -62.15648437 514.51789063 -61.546875 514.00390625 C-59.1086219 511.82975793 -56.83370204 509.51646169 -54.52734375 507.203125 C-49.22647596 502.21601574 -43.82480422 497.38931398 -38.15234375 492.828125 C-33.3551344 488.96028954 -28.85530168 484.85203005 -24.36157227 480.64282227 C-21.0361462 477.54561654 -17.640327 474.60705433 -14.08984375 471.765625 C-9.71482175 468.25669178 -5.60715216 464.54466421 -1.52734375 460.703125 C3.40782861 456.0564889 8.4674127 451.68386251 13.76171875 447.4453125 C17.29227147 444.52522999 20.63333103 441.41675804 23.98388672 438.29516602 C27.29469344 435.22990273 30.70161907 432.3412087 34.22265625 429.515625 C38.31358038 426.22995462 41.98672499 422.74585565 45.6328125 418.98046875 C47.88542564 416.8043775 50.3086532 415.0928827 52.89453125 413.33984375 C55.35654057 411.56646575 57.35670357 409.37068629 59.47265625 407.203125 C61.35655099 405.51844671 63.26819333 403.86812482 65.1796875 402.21484375 C67.75191155 399.95812248 70.26706579 397.64505559 72.78515625 395.328125 C76.38656796 392.03880262 80.045729 388.88294864 83.84765625 385.828125 C88.6448656 381.96028954 93.14469832 377.85203005 97.63842773 373.64282227 C100.9638538 370.54561654 104.359673 367.60705433 107.91015625 364.765625 C112.28518508 361.2566863 116.39279533 357.54461698 120.47265625 353.703125 C125.47079835 348.99827242 130.59155436 344.5510359 135.94921875 340.25390625 C139.17519795 337.63217393 142.26818144 334.8797933 145.359375 332.1015625 C147.38228323 330.28431037 149.42294997 328.49004842 151.47265625 326.703125 C155.83124142 322.89815045 160.15331811 319.05253514 164.47265625 315.203125 C161.57479635 318.91833 158.50057307 322.38535548 155.28515625 325.828125 C150.79060515 330.67318598 146.56278734 335.65626875 142.4453125 340.828125 C140.47265625 343.203125 140.47265625 343.203125 138.21875 345.390625 C136.24139265 347.02372655 136.24139265 347.02372655 136.47265625 349.203125 C145.56661865 349.29658715 154.66041095 349.36727063 163.75475216 349.41037369 C167.97949861 349.4310808 172.20391197 349.45908147 176.4284668 349.50488281 C180.51988976 349.54895354 184.61099627 349.57238823 188.70263863 349.58263397 C190.24885592 349.58991736 191.79505967 349.60413259 193.34113884 349.62604523 C207.41161752 349.8171881 221.42736461 348.00134872 234.16015625 341.578125 C235.20067139 341.0682605 235.20067139 341.0682605 236.26220703 340.5480957 C259.46793367 328.78080324 275.63127636 309.51848711 284.38671875 285.109375 C291.62045339 260.88945236 288.225481 236.09430632 276.51953125 214.08203125 C266.88389427 196.7882201 250.793028 183.50353452 233.22265625 174.828125 C232.31447144 174.3635791 232.31447144 174.3635791 231.38793945 173.88964844 C215.95783435 166.71793692 199.4882914 166.66990289 182.84765625 166.953125 C180.76173619 166.97325059 178.67579704 166.99149049 176.58984375 167.0078125 C171.55029755 167.05125907 166.51169667 167.11994084 161.47265625 167.203125 C161.41424561 166.41953613 161.35583496 165.63594727 161.2956543 164.82861328 C160.11976308 149.79705396 156.51174346 136.3260517 151.47265625 122.203125 C151.05113281 121.01976563 150.62960937 119.83640625 150.1953125 118.6171875 C149.30083414 116.14066022 148.39600305 113.6690041 147.47265625 111.203125 C146.81265625 111.203125 146.15265625 111.203125 145.47265625 111.203125 C145.23417969 110.20539063 144.99570312 109.20765625 144.75 108.1796875 C143.50990795 103.8669831 141.43890154 100.34119451 139.03515625 96.578125 C138.59631104 95.88444824 138.15746582 95.19077148 137.70532227 94.47607422 C133.20176406 87.52290516 127.99038616 81.3618853 122.47265625 75.203125 C121.69921875 74.29691406 120.92578125 73.39070313 120.12890625 72.45703125 C115.07092231 66.6065111 109.6776598 61.80458831 103.47265625 57.203125 C102.95574219 56.81125 102.43882812 56.419375 101.90625 56.015625 C58.27117904 23.00564224 -3.13391135 14.81874183 -52.21875 41.02734375 Z " fill="#FAFAFA" transform="translate(297.52734375,6.796875)"/>
<path d="M0 0 C7.18574763 -0.10215385 14.37130519 -0.17177946 21.55761719 -0.21972656 C23.99779254 -0.23973329 26.43792062 -0.26694745 28.87792969 -0.30175781 C32.40311411 -0.35075874 35.92765989 -0.37307916 39.453125 -0.390625 C40.5286261 -0.41127014 41.6041272 -0.43191528 42.71221924 -0.45318604 C54.77037607 -0.45668839 66.78701334 3.39327731 75.8125 11.66015625 C85.48036628 22.2706395 85.65806261 33.7588789 85.17480469 47.43603516 C84.34073515 59.66983164 77.83456156 71.17254702 68.92578125 79.44921875 C58.56218556 87.79475118 45.52918308 93.14373118 32.17822266 93.11352539 C31.05751373 93.11344986 29.93680481 93.11337433 28.78213501 93.11329651 C27.58817108 93.10813522 26.39420715 93.10297394 25.1640625 93.09765625 C23.31232925 93.09553383 23.31232925 93.09553383 21.42318726 93.09336853 C17.49043325 93.08778272 13.55773672 93.07523275 9.625 93.0625 C6.95442792 93.05691912 4.28385637 93.05292058 1.61328125 93.04882812 C-4.92449869 93.03781792 -11.46224524 93.02109385 -18 93 C-17.69046922 90.95007366 -17.37926856 88.90039944 -17.06738281 86.85083008 C-16.89426575 85.70939041 -16.72114868 84.56795074 -16.54278564 83.391922 C-15.75353735 78.45983012 -14.76175137 73.57790537 -13.75 68.6875 C-12.28349172 61.49299591 -10.85299256 54.29392922 -9.515625 47.07421875 C-9.38951843 46.39439438 -9.26341187 45.71457001 -9.13348389 45.0141449 C-8.52365145 41.72085999 -7.91851093 38.42683933 -7.31933594 35.1315918 C-5.14851286 23.36228062 -2.58503661 11.68425041 0 0 Z " fill="#FAFAFA" transform="translate(364,459)"/>
<path d="M0 0 C6.93 0 13.86 0 21 0 C20.54625 2.949375 20.0925 5.89875 19.625 8.9375 C19.41738037 10.30249634 19.41738037 10.30249634 19.20556641 11.69506836 C18.4870177 16.30220447 17.61973857 20.83332143 16.57568359 25.37670898 C15.10021934 32.10014555 13.88807729 38.88364837 12.60449219 45.64624023 C12.21745478 47.68250839 11.82761689 49.71822615 11.4375 51.75390625 C11.20933594 52.95345947 10.98117187 54.1530127 10.74609375 55.38891602 C10.21840648 57.94291549 9.64962889 60.4435067 9.00439453 62.96655273 C8.00820709 66.87606683 7.22050702 70.81398008 6.4921875 74.78125 C6.29666794 75.82968079 6.29666794 75.82968079 6.09719849 76.89929199 C5.68749835 79.09910782 5.281188 81.29953327 4.875 83.5 C4.59527757 85.00525025 4.31533159 86.51045898 4.03515625 88.015625 C3.35377464 91.67653923 2.67699585 95.33826142 2 99 C-4.6 99 -11.2 99 -18 99 C-18.33 97.35 -18.66 95.7 -19 94 C-19.67546875 94.34933594 -20.3509375 94.69867187 -21.046875 95.05859375 C-21.93890625 95.51363281 -22.8309375 95.96867188 -23.75 96.4375 C-24.63171875 96.88996094 -25.5134375 97.34242188 -26.421875 97.80859375 C-33.64271359 101.14549643 -42.32976658 101.1070848 -49.875 98.75 C-58.36173394 95.42246763 -63.75619261 89.91652192 -68.109375 81.9765625 C-71.6250225 73.32010969 -71.31644351 61.81298675 -68.375 53.0625 C-62.99554479 40.51670761 -54.67410462 32.14280306 -42 27 C-39.0625 26.1875 -39.0625 26.1875 -36 26 C-34.78376953 25.92458984 -34.78376953 25.92458984 -33.54296875 25.84765625 C-22.7507841 25.47030714 -15.90255634 27.77908864 -8 35 C-7.79318604 34.04633545 -7.58637207 33.0926709 -7.37329102 32.11010742 C-6.60526524 28.57068107 -5.83506535 25.03173077 -5.06420898 21.49291992 C-4.73093327 19.96147342 -4.39824665 18.4298986 -4.06616211 16.89819336 C-3.58862792 14.69611116 -3.1089745 12.49449971 -2.62890625 10.29296875 C-2.48095108 9.60849167 -2.33299591 8.92401459 -2.18055725 8.21879578 C-1.56815543 5.41872567 -0.90735632 2.72206897 0 0 Z " fill="#FAFAFA" transform="translate(1169,453)"/>
<path d="M0 0 C2.02514153 1.554076 3.38774171 2.99857591 5 5 C5.99 2.36 6.98 -0.28 8 -3 C14.6 -3 21.2 -3 28 -3 C27.35547284 4.80533319 26.07546662 12.34153515 24.53125 20.015625 C24.29088013 21.230224 24.05051025 22.444823 23.80285645 23.69622803 C23.03964872 27.54837685 22.2700604 31.3992158 21.5 35.25 C20.73126832 39.11531959 19.96385391 42.98089764 19.19714355 46.84661865 C18.72115135 49.24424892 18.24375383 51.64160074 17.76477051 54.03863525 C17.54784546 55.12706726 17.33092041 56.21549927 17.10742188 57.33691406 C16.91724487 58.28826233 16.72706787 59.2396106 16.53112793 60.2197876 C15.97365196 63.13791994 15.48841375 66.06951747 15 69 C8.4 69 1.8 69 -5 69 C-5 67.02 -5 65.04 -5 63 C-5.76183594 63.50660156 -5.76183594 63.50660156 -6.5390625 64.0234375 C-7.22742188 64.46945312 -7.91578125 64.91546875 -8.625 65.375 C-9.29789063 65.81585937 -9.97078125 66.25671875 -10.6640625 66.7109375 C-18.12817704 70.82993047 -26.28468674 71.03677176 -34.5625 69.53515625 C-43.18070143 67.00655201 -48.90173738 61.83060504 -53.7734375 54.44140625 C-58.13457902 45.76079017 -58.35158823 35.22805711 -56.3125 25.83203125 C-52.51401339 14.61066871 -45.54459972 5.31128652 -35 -0.3125 C-23.54136882 -5.48664935 -11.29849398 -5.85501426 0 0 Z " fill="#FAFAFA" transform="translate(597,483)"/>
<path d="M0 0 C6.18235224 4.35130615 10.68926316 10.20998767 13.109375 17.42578125 C15.27435718 29.95008677 12.88891711 41.97226283 5.78515625 52.46484375 C-1.48475752 61.7101315 -11.91707238 66.99930065 -23.52734375 68.52734375 C-35.94813123 69.45426819 -45.94987753 68.34617573 -55.96484375 60.21484375 C-61.34478921 55.09268734 -65.55152506 49.01701393 -65.765625 41.4296875 C-66.1484902 24.37321544 -66.1484902 24.37321544 -61.52734375 16.52734375 C-61.10324219 15.75261719 -60.67914062 14.97789062 -60.2421875 14.1796875 C-53.87382945 3.5539313 -44.13479975 -1.34973577 -32.640625 -5.0859375 C-21.41614622 -7.13995487 -9.88319007 -5.75882946 0 0 Z " fill="#FAFAFA" transform="translate(985.52734375,484.47265625)"/>
<path d="M0 0 C6.93 0 13.86 0 21 0 C20.40428077 4.17003462 19.80140305 8.26179655 19.02734375 12.390625 C18.85009766 13.34710938 18.67285156 14.30359375 18.49023438 15.2890625 C18.11879463 17.27882455 17.74638364 19.26840551 17.37304688 21.2578125 C17.10911133 22.68480469 17.10911133 22.68480469 16.83984375 24.140625 C16.67863037 25.00204102 16.51741699 25.86345703 16.35131836 26.75097656 C15.92283119 29.11462614 15.92283119 29.11462614 16 32 C16.67546875 31.65066406 17.3509375 31.30132812 18.046875 30.94140625 C18.93890625 30.48636719 19.8309375 30.03132813 20.75 29.5625 C21.63171875 29.11003906 22.5134375 28.65757812 23.421875 28.19140625 C30.34842773 24.99049931 38.54364899 24.89492104 45.8984375 26.71875 C53.53928186 29.56398934 57.83572611 34.00996882 62 41 C64.4240117 48.66311632 62.91174418 56.91182059 61.28515625 64.5859375 C61.10995956 65.45014313 60.93476288 66.31434875 60.7542572 67.20474243 C60.19942419 69.93011621 59.63112275 72.65247389 59.0625 75.375 C58.68467313 77.22247778 58.30771264 79.07013296 57.93164062 80.91796875 C57.2422277 84.29063712 56.55015536 87.66269501 55.84790039 91.03271484 C55.70800186 91.70426605 55.56810333 92.37581726 55.42396545 93.06771851 C54.98813764 95.05406435 54.49321966 97.02712137 54 99 C47.07 99 40.14 99 33 99 C33.64402897 93.84776824 34.33358887 89.0435401 35.41015625 84.0078125 C35.67763672 82.72519531 35.94511719 81.44257812 36.22070312 80.12109375 C36.63987537 78.12384688 37.0619868 76.12738401 37.49145508 74.13232422 C40.97142801 60.80298415 40.97142801 60.80298415 38.25 47.9375 C35.87969581 45.89640472 35.06047998 45.25504 32 45 C30.7625 44.896875 29.525 44.79375 28.25 44.6875 C22.36184162 44.77538296 17.85463586 47.19548943 13.6875 51.25 C9.94417261 57.35023722 8.42229705 63.91899218 7.17578125 70.875 C6.94909004 72.08990112 6.94909004 72.08990112 6.71781921 73.3293457 C6.24255079 75.88502302 5.77736254 78.44241172 5.3125 81 C4.98960045 82.74621743 4.66603886 84.49231258 4.34179688 86.23828125 C3.55230412 90.49063865 2.77650638 94.74517055 2 99 C-4.93 99 -11.86 99 -19 99 C-18.36677445 88.68956356 -16.29523036 78.78563127 -14.21875 68.69140625 C-13.84093989 66.83350936 -13.463629 64.97551089 -13.08679199 63.11741638 C-12.09950401 58.25673331 -11.10499854 53.39755412 -10.10906982 48.53863525 C-9.29584086 44.56490464 -8.4877354 40.59014035 -7.67989349 36.61531162 C-6.01132475 28.40594991 -4.33952886 20.1972376 -2.65820312 11.99047852 C-2.50440689 11.23667908 -2.35061066 10.48287964 -2.19215393 9.70623779 C-1.52358232 6.44970323 -0.8065456 3.2261824 0 0 Z " fill="#FAFAFA" transform="translate(708,453)"/>
<path d="M0 0 C3.31282396 2.50797302 5.21951975 5.26571841 7 9 C5.27860959 10.63396428 3.54871208 12.25691274 1.8125 13.875 C1.32974609 14.33519531 0.84699219 14.79539062 0.34960938 15.26953125 C-2.59421881 17.99602984 -5.16905516 19.78138135 -9 21 C-9.50789062 20.51789063 -10.01578125 20.03578125 -10.5390625 19.5390625 C-11.22742188 18.90742188 -11.91578125 18.27578125 -12.625 17.625 C-13.29789063 16.99851562 -13.97078125 16.37203125 -14.6640625 15.7265625 C-21.69569643 10.52926786 -30.69918593 11.36460893 -39 12 C-46.76632466 13.62527059 -52.85664798 18.04507369 -58 24 C-64.13276772 33.87975707 -65.73552308 44.46310267 -63.421875 55.84375 C-61.13651227 61.91034925 -56.77535983 65.27301728 -51 68 C-41.18061653 70.61634889 -31.70631285 69.56006214 -22.5234375 65.484375 C-19.89385942 64.09836675 -19.89385942 64.09836675 -17.9140625 61.765625 C-16 60 -16 60 -14.078125 59.93359375 C-11.07147104 61.47648196 -9.08621841 63.63406244 -6.75 66.0625 C-5.41195312 67.44115234 -5.41195312 67.44115234 -4.046875 68.84765625 C-3.37140625 69.55792969 -2.6959375 70.26820313 -2 71 C-4.0101071 77.36898066 -8.45386192 79.72380029 -14 83 C-29.1159671 90.66443402 -46.23305635 90.85398009 -62.14892578 85.68896484 C-72.65567513 81.778381 -80.31324878 74.32288149 -84.9375 64.25 C-89.37609606 51.61028937 -88.59274109 36.13395873 -83 24 C-80.89759647 20.14393286 -78.57930445 16.55240568 -76 13 C-75.5771875 12.40445312 -75.154375 11.80890625 -74.71875 11.1953125 C-57.54002043 -11.20667944 -22.88788704 -13.69216285 0 0 Z " fill="#F9F9F9" transform="translate(872,465)"/>
<path d="M0 0 C6.87105214 5.59271686 11.63979268 12.17721701 12.6875 21.1875 C12.90289292 26.75025615 12.60966002 31.6545399 11.6875 37.1875 C-6.4625 37.1875 -24.6125 37.1875 -43.3125 37.1875 C-40.844852 44.69021873 -40.844852 44.69021873 -35.6015625 49.34765625 C-32.32741348 50.54892253 -29.13386957 50.61211938 -25.6875 50.625 C-24.62378174 50.63080078 -24.62378174 50.63080078 -23.53857422 50.63671875 C-17.97456038 50.51529449 -13.92507896 49.20534479 -9.1328125 46.28125 C-7.3125 45.1875 -7.3125 45.1875 -5.3125 45.1875 C-3.84667645 47.33031033 -2.50126486 49.45456396 -1.1875 51.6875 C-0.81496094 52.30753906 -0.44242188 52.92757812 -0.05859375 53.56640625 C0.86328953 55.10287838 1.77623475 56.64470675 2.6875 58.1875 C-3.35709174 65.1387805 -13.39756159 68.00317596 -22.35546875 68.74609375 C-34.13955989 69.24992663 -44.85506615 67.82994733 -54.375 60.25 C-61.70067443 53.10520642 -64.40315169 44.82056117 -64.75 34.75 C-64.42507132 22.19593753 -58.48480257 11.56323215 -49.546875 3.01171875 C-35.24041115 -8.66855855 -15.69160992 -8.58597524 0 0 Z " fill="#F9F9F9" transform="translate(520.3125,484.8125)"/>
<path d="M0 0 C6.93 0 13.86 0 21 0 C17.21225035 23.59171991 17.21225035 23.59171991 15.25 31.375 C13.70051373 37.72535356 13.22021322 43.59729405 14.6875 50 C16.52492285 52.79988244 17.73180182 53.23510255 21 54 C27.48669067 54.80464674 32.65876831 53.88453214 38 50 C44.89293511 42.17558718 45.83659944 30.21601143 47.5625 20.3125 C47.97722114 17.95385375 48.39509777 15.59575976 48.81640625 13.23828125 C48.99631104 12.20743408 49.17621582 11.17658691 49.36157227 10.11450195 C50.06125877 6.7011556 51.04278334 3.35025832 52 0 C58.93 0 65.86 0 73 0 C71.85594618 9.25643543 70.14234388 18.21508291 68.10766602 27.30810547 C65.8611138 37.43191272 63.9077834 47.60675345 61.96777344 57.79272461 C61.60474121 59.69550171 61.60474121 59.69550171 61.234375 61.63671875 C61.02006836 62.76811279 60.80576172 63.89950684 60.58496094 65.06518555 C60.12145368 67.39065329 59.57510302 69.69958793 59 72 C52.4 72 45.8 72 39 72 C39 70.02 39 68.04 39 66 C38.25556641 66.50660156 38.25556641 66.50660156 37.49609375 67.0234375 C36.81675781 67.46945312 36.13742187 67.91546875 35.4375 68.375 C34.77621094 68.81585937 34.11492187 69.25671875 33.43359375 69.7109375 C25.25676926 74.04216075 14.86861184 74.65150726 6.015625 72.16015625 C0.1120135 69.50353108 -3.92403304 65.70926709 -7 60 C-12.80883341 43.12150293 -5.4869132 16.4607396 0 0 Z " fill="#FAFAFA" transform="translate(1019,480)"/>
<path d="M0 0 C0.99 3.3 1.98 6.6 3 10 C8.28 10.33 13.56 10.66 19 11 C18.505 5.555 18.505 5.555 18 0 C21.3 0 24.6 0 28 0 C28.33 3.3 28.66 6.6 29 10 C34.94 10 40.88 10 47 10 C47 6.7 47 3.4 47 0 C50.3 0 53.6 0 57 0 C57 3.3 57 6.6 57 10 C62.28 10.33 67.56 10.66 73 11 C73 8.36 73 5.72 73 3 C78.445 3.495 78.445 3.495 84 4 C83.67 7.3 83.34 10.6 83 14 C84.98567708 13.96744792 86.97135417 13.93489583 88.95703125 13.90234375 C91 14 91 14 94 15 C93.54177532 18.46941546 93.10868317 21.67395049 92 25 C88.37 24.34 84.74 23.68 81 23 C80.34 26.63 79.68 30.26 79 34 C76.03 33.01 73.06 32.02 70 31 C69.875 23.25 69.875 23.25 71 21 C66.05 20.67 61.1 20.34 56 20 C55.67 23.3 55.34 26.6 55 30 C50.545 29.01 50.545 29.01 46 28 C46 25.03 46 22.06 46 19 C40.72 19 35.44 19 30 19 C30 22.3 30 25.6 30 29 C27.03 28.67 24.06 28.34 21 28 C21 25.36 21 22.72 21 20 C19.5459375 20.2475 19.5459375 20.2475 18.0625 20.5 C13.6916256 21.1359264 9.41132946 21.06786661 5 21 C5.495 25.455 5.495 25.455 6 30 C3.03 30 0.06 30 -3 30 C-3.99 27.03 -3.99 27.03 -5 24 C-10.77366191 23.89502433 -16.26882909 24.28360364 -22 25 C-21.505 29.95 -21.505 29.95 -21 35 C-24.3 35 -27.6 35 -31 35 C-31.495 31.04 -31.495 31.04 -32 27 C-32.90363281 27.2165625 -33.80726563 27.433125 -34.73828125 27.65625 C-35.91777344 27.9346875 -37.09726562 28.213125 -38.3125 28.5 C-39.48425781 28.7784375 -40.65601563 29.056875 -41.86328125 29.34375 C-45 30 -45 30 -48 30 C-47.34 33.3 -46.68 36.6 -46 40 C-49.63 40 -53.26 40 -57 40 C-57.495 36.535 -57.495 36.535 -58 33 C-58.56847656 33.144375 -59.13695312 33.28875 -59.72265625 33.4375 C-64.62262205 34.61545505 -68.9645312 35.21427527 -74 35 C-73.34 38.96 -72.68 42.92 -72 47 C-75.3 47 -78.6 47 -82 47 C-82.33 44.03 -82.66 41.06 -83 38 C-84.19238281 38.37253906 -85.38476562 38.74507813 -86.61328125 39.12890625 C-88.17954818 39.60722729 -89.74596218 40.08506689 -91.3125 40.5625 C-92.49102539 40.9327832 -92.49102539 40.9327832 -93.69335938 41.31054688 C-94.45068359 41.53935547 -95.20800781 41.76816406 -95.98828125 42.00390625 C-96.68477783 42.21861572 -97.38127441 42.4333252 -98.09887695 42.65454102 C-100 43 -100 43 -103 42 C-103.73046875 40.15234375 -103.73046875 40.15234375 -104.1875 37.9375 C-104.42533203 36.83728516 -104.42533203 36.83728516 -104.66796875 35.71484375 C-104.77753906 35.14894531 -104.88710937 34.58304687 -105 34 C-102.2092793 33.16338138 -99.41751988 32.33057263 -96.625 31.5 C-95.43390625 31.14228516 -95.43390625 31.14228516 -94.21875 30.77734375 C-93.45820313 30.55175781 -92.69765625 30.32617188 -91.9140625 30.09375 C-91.2123291 29.88427734 -90.5105957 29.67480469 -89.78759766 29.45898438 C-88 29 -88 29 -86 29 C-86.66 26.03 -87.32 23.06 -88 20 C-81.375 17 -81.375 17 -78 17 C-77.67 19.97 -77.34 22.94 -77 26 C-76.27554687 25.7834375 -75.55109375 25.566875 -74.8046875 25.34375 C-65.20210896 22.57820738 -65.20210896 22.57820738 -60 23 C-60.350625 22.113125 -60.70125 21.22625 -61.0625 20.3125 C-62.01755602 16.93796874 -61.97151132 15.30313848 -61 12 C-58.36 11.67 -55.72 11.34 -53 11 C-52.34 13.97 -51.68 16.94 -51 20 C-46.05 18.68 -41.1 17.36 -36 16 C-36.495 11.545 -36.495 11.545 -37 7 C-34.03 6.34 -31.06 5.68 -28 5 C-27.01 7.97 -26.02 10.94 -25 14 C-23.865625 13.835 -22.73125 13.67 -21.5625 13.5 C-17.0161837 12.9225609 -12.57918831 12.92845018 -8 13 C-8.99 8.05 -8.99 8.05 -10 3 C-2.25 0 -2.25 0 0 0 Z " fill="#F4F4F4" transform="translate(338,280)"/>
<path d="M0 0 C4.45810752 -0.11734237 8.91581128 -0.18763372 13.375 -0.25 C14.62667969 -0.28351563 15.87835938 -0.31703125 17.16796875 -0.3515625 C25.48361922 -0.43863737 33.55744672 -0.09249378 39.96435547 5.80957031 C46.16133487 12.60674601 45.4376727 20.28004225 45.12744141 28.99316406 C44.61518452 37.05973805 40.65414793 43.37755757 35 49 C24.79044526 56.66945685 16.00746331 57.28833622 3.5625 57.125 C2.25861328 57.11597656 0.95472656 57.10695313 -0.38867188 57.09765625 C-3.59263832 57.07418397 -6.79622264 57.04134727 -10 57 C-10.39915043 49.62478859 -8.88470078 42.98100895 -7.25 35.8125 C-6.698563 33.3246519 -6.14910423 30.83636455 -5.6015625 28.34765625 C-5.32989258 27.11547363 -5.05822266 25.88329102 -4.77832031 24.61376953 C-3.64278347 19.34143064 -2.61839194 14.05072085 -1.625 8.75 C-1.37411621 7.41159058 -1.37411621 7.41159058 -1.11816406 6.04614258 C-0.74268504 4.03127367 -0.3708584 2.0157245 0 0 Z " fill="#020202" transform="translate(382,477)"/>
<path d="M0 0 C6.93 0 13.86 0 21 0 C19.125 12.375 19.125 12.375 18 18 C23.61 18 29.22 18 35 18 C34.42289354 23.35884572 33.76289515 28.65973393 33 34 C26.73 34 20.46 34 14 34 C13.896875 35.36125 13.79375 36.7225 13.6875 38.125 C13.26884276 42.48396068 12.44113725 46.61427583 11.4375 50.875 C9.99850835 57.28377743 9.40272755 63.44148911 10 70 C11.01796809 71.23865033 11.01796809 71.23865033 13.14453125 71.1328125 C14.02496094 71.13023437 14.90539062 71.12765625 15.8125 71.125 C16.68519531 71.12757813 17.55789063 71.13015625 18.45703125 71.1328125 C20.78654215 71.01114834 22.76938015 70.65514709 25 70 C27.72592593 79.71111111 27.72592593 79.71111111 27 85 C21.29786231 90.03129797 12.60430287 89.34549655 5.41796875 89.27734375 C-0.6917394 88.78158457 -4.77024332 86.62012259 -8.875 82.125 C-13.5912492 75.18933941 -13.72443661 68.54095018 -12.43481445 60.45727539 C-11.66491904 56.44079064 -10.84531913 52.43858264 -10 48.4375 C-9.71012766 47.03337007 -9.42105865 45.62907404 -9.1328125 44.22460938 C-8.43112496 40.81444185 -7.71859758 37.40664945 -7 34 C-10.3 34 -13.6 34 -17 34 C-16.85764543 32.27054347 -16.71095618 30.54144346 -16.5625 28.8125 C-16.48128906 27.84957031 -16.40007813 26.88664062 -16.31640625 25.89453125 C-16.02650639 23.24248442 -15.52320735 20.61603677 -15 18 C-11.04 18 -7.08 18 -3 18 C-2.86722656 17.11957031 -2.73445312 16.23914063 -2.59765625 15.33203125 C-2.42105469 14.17058594 -2.24445312 13.00914062 -2.0625 11.8125 C-1.88847656 10.66394531 -1.71445312 9.51539063 -1.53515625 8.33203125 C-1.08731926 5.54367395 -0.55384997 2.76924983 0 0 Z " fill="#F9F9F9" transform="translate(650,464)"/>
<path d="M0 0 C5.08506202 3.53980221 9.70743886 7.57369856 14.35107422 11.66601562 C17.54983596 14.45309503 20.86336211 17.10006469 24.17578125 19.75 C26.15211122 21.39412636 27.99876388 23.03795333 29.84765625 24.8125 C34.87378264 29.52301149 38.49994632 32.66467306 45.66796875 32.65625 C47.42327156 32.49872282 49.17763029 32.30896358 50.91796875 32.03125 C50.58796875 33.02125 50.25796875 34.01125 49.91796875 35.03125 C47.11580768 36.30775587 44.36525142 37.41027086 41.48046875 38.46875 C32.78281701 41.79510445 24.30382785 45.49066884 15.85546875 49.40625 C14.71988525 49.93017334 13.58430176 50.45409668 12.41430664 50.99389648 C6.50421973 53.71887825 6.50421973 53.71887825 0.91796875 57.03125 C-0.07203125 57.03125 -1.06203125 57.03125 -2.08203125 57.03125 C-1.76041016 57.50320801 -1.43878906 57.97516602 -1.10742188 58.46142578 C17.91796875 86.46348966 17.91796875 86.46348966 17.91796875 92.03125 C15.93796875 92.52625 15.93796875 92.52625 13.91796875 93.03125 C7.52103813 86.09934476 1.18305902 79.15123722 -4.85546875 71.90234375 C-5.46648437 71.18175781 -6.0775 70.46117187 -6.70703125 69.71875 C-7.25617188 69.06261719 -7.8053125 68.40648437 -8.37109375 67.73046875 C-10.28531426 65.82935934 -11.50846156 64.86611985 -14.08203125 64.03125 C-16.71115705 65.0070407 -16.71115705 65.0070407 -19.36328125 66.79296875 C-20.37003906 67.41751953 -21.37679687 68.04207031 -22.4140625 68.68554688 C-23.98220703 69.69198242 -23.98220703 69.69198242 -25.58203125 70.71875 C-26.62746094 71.37037109 -27.67289063 72.02199219 -28.75 72.69335938 C-34.14385936 76.03785788 -34.14385936 76.03785788 -39.27148438 79.76489258 C-41.08203125 81.03125 -41.08203125 81.03125 -43.33203125 80.71875 C-43.90953125 80.491875 -44.48703125 80.265 -45.08203125 80.03125 C-43.56708238 76.24387783 -41.37070237 74.3609318 -38.20703125 71.84375 C-37.2325 71.06386719 -36.25796875 70.28398437 -35.25390625 69.48046875 C-33.10184 67.80177627 -30.92312374 66.16543483 -28.72265625 64.55078125 C-28.17722168 64.14947998 -27.63178711 63.74817871 -27.06982422 63.3347168 C-25.52568296 62.20641376 -23.9720256 61.09116883 -22.41796875 59.9765625 C-19.8372476 58.17462301 -19.8372476 58.17462301 -19.08203125 55.03125 C-20.56703125 54.53625 -20.56703125 54.53625 -22.08203125 54.03125 C-24.35716231 51.88251511 -26.51073608 49.64396407 -28.64453125 47.35546875 C-32.53928093 43.28942221 -36.54791457 40.22482694 -41.359375 37.29296875 C-42.21208984 36.66841797 -42.21208984 36.66841797 -43.08203125 36.03125 C-43.08203125 35.37125 -43.08203125 34.71125 -43.08203125 34.03125 C-40.89550386 33.69159526 -38.707751 33.35982523 -36.51953125 33.03125 C-35.30136719 32.845625 -34.08320313 32.66 -32.828125 32.46875 C-25.65499135 31.63101176 -25.65499135 31.63101176 -22.08203125 32.03125 C-18.10708161 35.2053209 -15.27522661 39.26138764 -12.26953125 43.34375 C-11.86283203 43.89353516 -11.45613281 44.44332031 -11.03710938 45.00976562 C-10.04834514 46.34750547 -9.0646454 47.68898623 -8.08203125 49.03125 C-4.22825081 46.73048556 -0.40208515 44.38754493 3.41796875 42.03125 C5.58324463 40.69565927 7.7498293 39.36218709 9.91796875 38.03125 C10.81515625 37.45375 11.71234375 36.87625 12.63671875 36.28125 C14.91796875 35.03125 14.91796875 35.03125 17.91796875 35.03125 C13.67697406 29.92663457 9.13325585 25.19270194 4.41796875 20.53125 C-0.300155 15.86693237 -4.80424917 11.1075514 -9.08203125 6.03125 C-10.83955288 4.27372837 -13.18904325 4.77502076 -15.58203125 4.71875 C-22.15695183 4.73331239 -28.04458143 5.97090628 -34.34375 7.69604492 C-40.7470735 9.40854424 -40.7470735 9.40854424 -44.08203125 8.03125 C-44.08203125 7.04125 -44.08203125 6.05125 -44.08203125 5.03125 C-41.25103408 3.90006096 -38.41747116 2.77620432 -35.58203125 1.65625 C-34.79054687 1.33914062 -33.9990625 1.02203125 -33.18359375 0.6953125 C-21.5087938 -3.89805141 -11.34917514 -6.78709486 0 0 Z " fill="#F4F4F4" transform="translate(242.08203125,154.96875)"/>
<path d="M0 0 C7.66040913 2.58784935 14.6233491 6.51012424 21.625 10.5 C21.295 11.16 20.965 11.82 20.625 12.5 C15.42893462 12.08431477 10.80647716 11.0163231 5.8125 9.5 C-4.31117284 5.99131033 -4.31117284 5.99131033 -14.375 7.5859375 C-16.53520672 9.43111407 -18.42633693 11.43168218 -20.375 13.5 C-22.51509053 15.52905476 -24.69705306 17.51173622 -26.875 19.5 C-27.99665164 20.53585456 -29.11775611 21.57230196 -30.23828125 22.609375 C-32.83377644 25.00377213 -35.43268685 27.39322756 -38.0625 29.75 C-38.66449219 30.29140625 -39.26648438 30.8328125 -39.88671875 31.390625 C-41.375 32.5 -41.375 32.5 -43.375 32.5 C-43.375 33.49 -43.375 34.48 -43.375 35.5 C-42.81296875 35.72429687 -42.2509375 35.94859375 -41.671875 36.1796875 C-38.70224583 37.88671923 -36.87155833 40.04806544 -34.625 42.625 C-33.82578125 43.53507812 -33.0265625 44.44515625 -32.203125 45.3828125 C-31.59984375 46.08148438 -30.9965625 46.78015625 -30.375 47.5 C-28.725 46.84 -27.075 46.18 -25.375 45.5 C-25.375 44.84 -25.375 44.18 -25.375 43.5 C-23.63427734 42.12719727 -23.63427734 42.12719727 -21.2109375 40.56640625 C-20.33566406 39.99986328 -19.46039063 39.43332031 -18.55859375 38.84960938 C-17.63175781 38.25986328 -16.70492187 37.67011719 -15.75 37.0625 C-14.84636719 36.47662109 -13.94273437 35.89074219 -13.01171875 35.28710938 C-0.90236592 27.5 -0.90236592 27.5 3 27.5 C6.87136194 28.97480455 10.19750613 31.19515921 13.625 33.5 C10.76426625 36.6421174 8.16021769 38.41531467 4.3125 40.1875 C-3.21800757 43.81398522 -10.25623886 48.13903198 -17.375 52.5 C-18.32503906 53.04269531 -19.27507812 53.58539063 -20.25390625 54.14453125 C-22.50141091 55.3254369 -22.50141091 55.3254369 -23.375 57.5 C-22.715 57.5 -22.055 57.5 -21.375 57.5 C-20.06567383 58.88598633 -20.06567383 58.88598633 -18.58203125 60.83203125 C-18.03699951 61.54343262 -17.49196777 62.25483398 -16.93041992 62.98779297 C-16.06767456 64.13852295 -16.06767456 64.13852295 -15.1875 65.3125 C-14.31218628 66.47096436 -14.31218628 66.47096436 -13.41918945 67.65283203 C-1.375 83.73297258 -1.375 83.73297258 -1.375 88.5 C-3.140625 89.21875 -3.140625 89.21875 -5.375 89.5 C-7.234375 88.09375 -7.234375 88.09375 -9.125 86 C-11.83404446 83.10934363 -14.55254868 80.39001975 -17.5625 77.8125 C-21.19787798 74.680264 -24.67770596 71.4468961 -27.8359375 67.82421875 C-29.53345013 65.88419248 -29.53345013 65.88419248 -32.375 63.5 C-37.63163769 63.43429203 -41.43989045 67.23774189 -45.375 70.3125 C-46.07367188 70.84681641 -46.77234375 71.38113281 -47.4921875 71.93164062 C-49.46247207 73.44281172 -51.41981294 74.9693768 -53.375 76.5 C-54.8290625 77.61955078 -54.8290625 77.61955078 -56.3125 78.76171875 C-58.45892132 80.33807901 -58.45892132 80.33807901 -59.375 82.5 C-61.025 82.17 -62.675 81.84 -64.375 81.5 C-63.95696963 77.12597492 -61.05975583 75.02510665 -57.9375 72.3125 C-57.40342529 71.83562744 -56.86935059 71.35875488 -56.3190918 70.86743164 C-54.67784313 69.4037599 -53.02716245 67.95133073 -51.375 66.5 C-49.47664653 64.81533553 -47.58055385 63.12811746 -45.6875 61.4375 C-44.47513672 60.36822266 -44.47513672 60.36822266 -43.23828125 59.27734375 C-41.29726271 57.62663149 -41.29726271 57.62663149 -40.375 55.5 C-40.9421875 55.2525 -41.509375 55.005 -42.09375 54.75 C-45.59412089 52.83198855 -48.24951276 50.08264565 -51.15625 47.375 C-53.17710453 45.6672356 -54.96362556 44.55223612 -57.375 43.5 C-57.375 42.84 -57.375 42.18 -57.375 41.5 C-58.22320312 41.25507813 -59.07140625 41.01015625 -59.9453125 40.7578125 C-63.69551876 39.38245212 -66.90581111 37.51618881 -70.25 35.375 C-70.84296875 35.00246094 -71.4359375 34.62992188 -72.046875 34.24609375 C-73.4931343 33.33635 -74.93458046 32.41896202 -76.375 31.5 C-75.715 30.84 -75.055 30.18 -74.375 29.5 C-72.30859375 29.73876953 -72.30859375 29.73876953 -69.8125 30.2578125 C-64.3860943 30.90594489 -61.88610994 29.55196361 -57.65356445 26.26928711 C-56.90163818 25.64417236 -56.14971191 25.01905762 -55.375 24.375 C-53.72359867 23.0808278 -52.07122965 21.78788958 -50.41796875 20.49609375 C-49.58571777 19.83206543 -48.7534668 19.16803711 -47.89599609 18.48388672 C-43.91231547 15.34894689 -39.8044494 12.39385682 -35.6875 9.4375 C-34.97013672 8.91462402 -34.25277344 8.39174805 -33.51367188 7.85302734 C-31.48168633 6.38036055 -29.43496467 4.93322485 -27.375 3.5 C-26.34644897 2.77719849 -26.34644897 2.77719849 -25.29711914 2.03979492 C-17.19063107 -3.38732404 -9.21490267 -2.52758093 0 0 Z " fill="#F3F3F3" transform="translate(409.375,151.5)"/>
<path d="M0 0 C0.87454834 0.00523682 1.74909668 0.01047363 2.65014648 0.01586914 C3.59438477 0.0190918 4.53862305 0.02231445 5.51147461 0.02563477 C6.50469727 0.03401367 7.49791992 0.04239258 8.52124023 0.05102539 C9.51833008 0.05553711 10.51541992 0.06004883 11.54272461 0.06469727 C14.01478872 0.07652532 16.48673541 0.0930069 18.95874023 0.11352539 C17.32742099 9.27852899 15.55502303 18.41483073 13.77124023 27.55102539 C13.46420626 29.1261261 13.15724146 30.7012403 12.8503418 32.27636719 C12.37284362 34.72695966 11.89528115 37.17753946 11.41744995 39.62806702 C10.29178072 45.40134015 9.16929534 51.17522543 8.04858398 56.94946289 C7.73698498 58.55436311 7.42538023 60.15926221 7.11376953 61.76416016 C6.66807356 64.05968609 6.22247052 66.35522977 5.7772522 68.65084839 C4.97343789 72.79490198 4.16615116 76.93825172 3.35498047 81.08087158 C2.94119675 83.20352089 2.53295242 85.32719756 2.12475586 87.45092773 C1.85605415 88.83198461 1.58718062 90.21300807 1.31811523 91.59399414 C1.08060547 92.82400146 0.8430957 94.05400879 0.59838867 95.32128906 C-0.04125977 98.11352539 -0.04125977 98.11352539 -1.04125977 99.11352539 C-2.52997836 99.20021971 -4.02270476 99.22056033 -5.51391602 99.21118164 C-6.41303711 99.20795898 -7.3121582 99.20473633 -8.23852539 99.20141602 C-9.65681641 99.18884766 -9.65681641 99.18884766 -11.10375977 99.17602539 C-12.0531543 99.17151367 -13.00254883 99.16700195 -13.98071289 99.16235352 C-16.33429042 99.15052649 -18.68774454 99.13404564 -21.04125977 99.11352539 C-20.46526699 90.26858033 -18.97274854 81.68130496 -17.29125977 72.98852539 C-17.01945835 71.56361838 -16.74797884 70.13864993 -16.47680664 68.71362305 C-14.49101064 58.31156156 -12.44131443 47.92216786 -10.33813477 37.54321289 C-9.49500706 33.38175655 -8.66563122 29.21787566 -7.84765625 25.05142212 C-7.29894262 22.25674433 -6.74741091 19.46262539 -6.19580078 16.66851807 C-5.92740677 15.30512669 -5.66030398 13.94148046 -5.39453125 12.57757568 C-5.02505248 10.68262574 -4.65046622 8.78867381 -4.27563477 6.89477539 C-3.9541748 5.25605469 -3.9541748 5.25605469 -3.6262207 3.58422852 C-2.81468489 0.15653971 -2.81468489 0.15653971 0 0 Z " fill="#FAFAFA" transform="translate(900.041259765625,452.886474609375)"/>
<path d="M0 0 C3.0851194 2.37316877 5.22472223 4.16171974 6.4375 7.875 C7.27023297 14.88525208 7.53295028 21.99830449 3.76953125 28.1953125 C-0.67176054 33.79576842 -5.46807713 37.27675585 -12.69140625 38.125 C-18.51936367 38.44055776 -21.83347155 37.27990049 -26.5625 33.875 C-30.88945852 29.25957758 -30.98400988 23.91689981 -30.89453125 17.82421875 C-30.22185771 11.84929494 -27.83133164 7.23816975 -23.68359375 2.91796875 C-16.6528575 -2.61080543 -8.31258381 -2.62502647 0 0 Z " fill="#050505" transform="translate(1150.5625,498.125)"/>
<path d="M0 0 C3.37861919 3.28970816 5.17997386 5.84189748 5.80859375 10.58203125 C5.81769085 18.83309946 5.53703744 24.91375901 -0.2734375 31.0546875 C-5.78831483 36.08791615 -10.57375568 37.86614912 -18.0546875 37.6875 C-22.38266264 37.0560629 -25.46116764 35.29424129 -28.625 32.3125 C-32.21552014 26.70231229 -32.47258316 20.85772551 -31.625 14.3125 C-29.57658998 7.80384237 -25.60604 3.473754 -20.125 -0.5 C-13.50052068 -2.7475912 -6.38061315 -2.97028543 0 0 Z " fill="#040404" transform="translate(592.625,498.6875)"/>
<path d="M0 0 C4.42016966 2.41748282 7.39839179 5.19517536 9 10 C9.90778108 19.07781077 7.92058406 25.1323599 3.3125 32.8125 C-1.1877392 37.06948303 -6.49669441 39.20743628 -12.6875 39.4375 C-18.08873252 39.15520562 -21.61576818 37.49646683 -25.3125 33.5 C-29.0984504 27.89118459 -28.54129481 21.5264689 -28 15 C-26.33303009 8.77396782 -22.27806217 4.53911825 -17 1 C-11.47012274 -0.84329242 -5.74140285 -0.79213615 0 0 Z " fill="#040404" transform="translate(969,497)"/>
<path d="M0 0 C3.57379964 4.23213115 4.0538131 6.32287858 5 12 C-6.88 12 -18.76 12 -31 12 C-29.00988513 6.0296554 -27.60695114 2.8248658 -22.5 -0.75 C-15.21841833 -4.39079084 -7.00616288 -4.12127228 0 0 Z " fill="#0F0F0F" transform="translate(509,498)"/>
<path d="M0 0 C2 1 2 1 3.10546875 3.8359375 C3.46253906 5.00382813 3.81960937 6.17171875 4.1875 7.375 C4.73470703 9.11910156 4.73470703 9.11910156 5.29296875 10.8984375 C6 14 6 14 5 17 C2.22604152 15.61302076 1.46848793 13.42648926 0.01953125 10.7890625 C-1.15887287 8.7212116 -2.51418146 6.85727317 -4 5 C-2.25 1.125 -2.25 1.125 0 0 Z " fill="#EAEAEA" transform="translate(166,238)"/>
<path d="M0 0 C0.66 0.33 1.32 0.66 2 1 C1.57589844 1.4125 1.15179688 1.825 0.71484375 2.25 C-3.18403638 6.08889735 -6.84961982 10.05572456 -10.421875 14.19921875 C-12.19649815 16.2242219 -14.05776935 18.13545857 -16 20 C-16.33 19.34 -16.66 18.68 -17 18 C-17.99 18 -18.98 18 -20 18 C-13.40235323 11.91916889 -6.79775623 5.8580664 0 0 Z " fill="#E0E0E0" transform="translate(462,321)"/>
<path d="M0 0 C0.66 0.33 1.32 0.66 2 1 C-2.18461538 6.78461538 -2.18461538 6.78461538 -6.3125 7.875 C-7.6428125 7.936875 -7.6428125 7.936875 -9 8 C-9.66 7.01 -10.32 6.02 -11 5 C-9.730447 4.35165346 -8.45930294 3.70642185 -7.1875 3.0625 C-6.47980469 2.70285156 -5.77210938 2.34320313 -5.04296875 1.97265625 C-3 1 -3 1 0 0 Z " fill="#E3E3E3" transform="translate(208,156)"/>
<path d="M0 0 C0.66 0.33 1.32 0.66 2 1 C1.690625 1.598125 1.38125 2.19625 1.0625 2.8125 C-0.10209704 5.08956772 -0.10209704 5.08956772 -1 8 C-3.4375 9.25 -3.4375 9.25 -6 10 C-6.66 9.67 -7.32 9.34 -8 9 C-6.4169423 4.7257442 -3.49431596 2.73468206 0 0 Z " fill="#DEDEDE" transform="translate(205,226)"/>
<path d="M0 0 C0.99 0.33 1.98 0.66 3 1 C5.14255793 0.61067144 5.14255793 0.61067144 7 0 C9 3 9 3 9 6 C7.3125 6.8125 7.3125 6.8125 5 7 C2.25 4.6875 2.25 4.6875 0 2 C0 1.34 0 0.68 0 0 Z " fill="#E8E8E8" transform="translate(399,234)"/>
<path d="M0 0 C0 4.62330116 -2.87709601 6.79216348 -6 10 C-8.60742426 12.40649372 -11.2766309 14.72591768 -14 17 C-14.66 16.67 -15.32 16.34 -16 16 C-13.06160475 11.95970652 -9.67856029 8.87179219 -5.90625 5.6484375 C-3.83599452 3.85817559 -1.89524622 1.97421482 0 0 Z " fill="#282828" transform="translate(213,573)"/>
<path d="M0 0 C0.66 0.33 1.32 0.66 2 1 C-0.89801762 4.70302252 -2.7832008 6.9554913 -7 9 C-9.09896257 10.91757074 -11.03279517 12.94337677 -13 15 C-13.66 14.67 -14.32 14.34 -15 14 C-13.25311063 12.22600373 -11.50266549 10.45577447 -9.75 8.6875 C-9.25886719 8.18798828 -8.76773438 7.68847656 -8.26171875 7.17382812 C-5.64859804 4.54328661 -3.04342089 2.12314838 0 0 Z " fill="#272727" transform="translate(76,197)"/>
<path d="M0 0 C0 0.33 0 0.66 0 1 C-2.64 1 -5.28 1 -8 1 C-8.33 1.66 -8.66 2.32 -9 3 C-9.99 3 -10.98 3 -12 3 C-14.67398476 4.93897879 -14.67398476 4.93897879 -17 7 C-17 4 -17 4 -14.6875 1.25 C-10.27029914 -2.31569226 -5.2328574 -0.94042455 0 0 Z " fill="#272727" transform="translate(408,158)"/>
<path d="M0 0 C-1.26026798 3.78080393 -2.93546534 4.77295425 -6.0625 7.1875 C-6.98160156 7.90292969 -7.90070313 8.61835938 -8.84765625 9.35546875 C-9.55792969 9.89816406 -10.26820313 10.44085938 -11 11 C-11.66 10.67 -12.32 10.34 -13 10 C-11.21371169 8.32722165 -9.4214925 6.66175557 -7.625 5 C-6.86316406 4.28457031 -6.86316406 4.28457031 -6.0859375 3.5546875 C-2.2265625 0 -2.2265625 0 0 0 Z " fill="#E1E1E1" transform="translate(335,434)"/>
<path d="M0 0 C0.66 0.33 1.32 0.66 2 1 C-1.63 4.63 -5.26 8.26 -9 12 C-9.99 11.67 -10.98 11.34 -12 11 C-8.04 7.37 -4.08 3.74 0 0 Z " fill="#C9C9C9" transform="translate(425,353)"/>
<path d="M0 0 C0.66 0.33 1.32 0.66 2 1 C-1.66666667 4.66666667 -5.33333333 8.33333333 -9 12 C-8.52379711 7.62346871 -7.33100111 5.93461995 -3.9375 3.1875 C-3.20402344 2.58292969 -2.47054688 1.97835938 -1.71484375 1.35546875 C-1.14894531 0.90816406 -0.58304687 0.46085937 0 0 Z " fill="#CCCCCC" transform="translate(462,321)"/>
<path d="M0 0 C1.90318884 2.85478326 2.4619099 4.41941308 3.125 7.6875 C3.29257813 8.49574219 3.46015625 9.30398437 3.6328125 10.13671875 C3.75398437 10.75160156 3.87515625 11.36648437 4 12 C3.01 11.67 2.02 11.34 1 11 C-0.8380113 6.95637513 -1.25455926 4.26550147 0 0 Z " fill="#BFBFBF" transform="translate(168,243)"/>
<path d="M0 0 C0.66 0.33 1.32 0.66 2 1 C-1.3 4.3 -4.6 7.6 -8 11 C-8.99 10.67 -9.98 10.34 -11 10 C-9.68 9.34 -8.36 8.68 -7 8 C-7 7.34 -7 6.68 -7 6 C-5.46875 4.4921875 -5.46875 4.4921875 -3.5 2.875 C-2.8503125 2.33617188 -2.200625 1.79734375 -1.53125 1.2421875 C-0.77328125 0.62730469 -0.77328125 0.62730469 0 0 Z " fill="#303030" transform="translate(218,64)"/>
<path d="M0 0 C0 3 0 3 -1.96875 5.04296875 C-2.8040625 5.75066406 -3.639375 6.45835937 -4.5 7.1875 C-5.3353125 7.90292969 -6.170625 8.61835938 -7.03125 9.35546875 C-7.6809375 9.89816406 -8.330625 10.44085938 -9 11 C-9.66 10.67 -10.32 10.34 -11 10 C-5.555 5.05 -5.555 5.05 0 0 Z " fill="#D0D0D0" transform="translate(382,391)"/>
<path d="M0 0 C0.66 0.33 1.32 0.66 2 1 C-0.77762123 4.60062011 -3.73991357 7.83047153 -7 11 C-7.66 10.67 -8.32 10.34 -9 10 C-6.03 6.7 -3.06 3.4 0 0 Z " fill="#E0E0E0" transform="translate(555,487)"/>
<path d="M0 0 C0.66 0.66 1.32 1.32 2 2 C1.75558954 4.52557477 1.17639341 5.7852602 -0.4375 7.75 C-2 9 -2 9 -4 9 C-2.94124926 5.59687262 -1.99097846 2.98646769 0 0 Z " fill="#D4D4D4" transform="translate(178,388)"/>
<path d="M0 0 C1.65 0.33 3.3 0.66 5 1 C2.42215154 3.64752004 0.08351902 5.94432065 -3 8 C-1.125 2.25 -1.125 2.25 0 0 Z " fill="#333333" transform="translate(233,517)"/>
<path d="M0 0 C0.66 0.33 1.32 0.66 2 1 C1.01 2.32 0.02 3.64 -1 5 C-1.99 4.67 -2.98 4.34 -4 4 C-2.68 2.68 -1.36 1.36 0 0 Z M-9 8 C-8.34 8.33 -7.68 8.66 -7 9 C-7.99 9 -8.98 9 -10 9 C-9.67 8.67 -9.34 8.34 -9 8 Z " fill="#121212" transform="translate(296,493)"/>
<path d="M0 0 C0 3 0 3 -1.75 5.125 C-3.95974524 6.96645436 -5.20090866 7.60012981 -8 8 C-5.58443874 4.80800833 -3.31996462 2.25283313 0 0 Z " fill="#CACACA" transform="translate(202,45)"/>
<path d="M0 0 C1.98 0 3.96 0 6 0 C5.67 1.65 5.34 3.3 5 5 C2.5 3.625 2.5 3.625 0 2 C0 1.34 0 0.68 0 0 Z " fill="#B9B9B9" transform="translate(199,189)"/>
<path d="M0 0 C0 3 0 3 -2.5 5.6875 C-3.325 6.450625 -4.15 7.21375 -5 8 C-5 5 -5 5 -2.5 2.3125 C-1.675 1.549375 -0.85 0.78625 0 0 Z " fill="#EDEDED" transform="translate(293,469)"/>
<path d="M0 0 C0.66 0 1.32 0 2 0 C2 2.31 2 4.62 2 7 C1.01 6.67 0.02 6.34 -1 6 C-0.67 4.02 -0.34 2.04 0 0 Z " fill="#F8F8F8" transform="translate(166,241)"/>
<path d="M0 0 C0.33 0.66 0.66 1.32 1 2 C0.0625 4.125 0.0625 4.125 -1 6 C-0.01 5.67 0.98 5.34 2 5 C2 5.66 2 6.32 2 7 C0.35 6.67 -1.3 6.34 -3 6 C-2.42655063 3.13275314 -2.1385485 2.1385485 0 0 Z " fill="#B2B2B2" transform="translate(348,227)"/>
<path d="M0 0 C2.125 0.9375 2.125 0.9375 4 2 C3.67 2.66 3.34 3.32 3 4 C1.35 4 -0.3 4 -2 4 C-2 3.01 -2 2.02 -2 1 C-1.34 0.67 -0.68 0.34 0 0 Z " fill="#E5E5E5" transform="translate(427,160)"/>
</svg>
