<svg width="348" height="348" viewBox="0 0 348 348" fill="none" xmlns="http://www.w3.org/2000/svg">
<g filter="url(#filter0_i_258_27)">
<circle cx="174" cy="174" r="174" fill="#D9D9D9" fill-opacity="0.49"/>
</g>
<path d="M202 0C204.209 0 206 1.79086 206 4V45.9072C263.439 60.2101 306 112.134 306 174C306 235.866 263.439 287.789 206 302.092V344C206 346.209 204.209 348 202 348H146C143.791 348 142 346.209 142 344V302.092C84.5611 287.789 42 235.866 42 174C42 112.134 84.561 60.2101 142 45.9072V4C142 1.79087 143.791 0 146 0H202Z" fill="#760031"/>
<g filter="url(#filter1_i_258_27)">
<circle cx="174" cy="174" r="112" fill="#760031"/>
</g>
<rect x="170" width="8" height="62" fill="#D9D9D9"/>
<rect x="171" y="288" width="6" height="60" fill="#4D0221"/>
<defs>
<filter id="filter0_i_258_27" x="0" y="0" width="348" height="348" filterUnits="userSpaceOnUse" color-interpolation-filters="sRGB">
<feFlood flood-opacity="0" result="BackgroundImageFix"/>
<feBlend mode="normal" in="SourceGraphic" in2="BackgroundImageFix" result="shape"/>
<feColorMatrix in="SourceAlpha" type="matrix" values="0 0 0 0 0 0 0 0 0 0 0 0 0 0 0 0 0 0 127 0" result="hardAlpha"/>
<feMorphology radius="4" operator="erode" in="SourceAlpha" result="effect1_innerShadow_258_27"/>
<feOffset/>
<feGaussianBlur stdDeviation="4"/>
<feComposite in2="hardAlpha" operator="arithmetic" k2="-1" k3="1"/>
<feColorMatrix type="matrix" values="0 0 0 0 1 0 0 0 0 1 0 0 0 0 1 0 0 0 0.25 0"/>
<feBlend mode="normal" in2="shape" result="effect1_innerShadow_258_27"/>
</filter>
<filter id="filter1_i_258_27" x="62" y="62" width="224" height="224" filterUnits="userSpaceOnUse" color-interpolation-filters="sRGB">
<feFlood flood-opacity="0" result="BackgroundImageFix"/>
<feBlend mode="normal" in="SourceGraphic" in2="BackgroundImageFix" result="shape"/>
<feColorMatrix in="SourceAlpha" type="matrix" values="0 0 0 0 0 0 0 0 0 0 0 0 0 0 0 0 0 0 127 0" result="hardAlpha"/>
<feMorphology radius="4" operator="erode" in="SourceAlpha" result="effect1_innerShadow_258_27"/>
<feOffset/>
<feGaussianBlur stdDeviation="4"/>
<feComposite in2="hardAlpha" operator="arithmetic" k2="-1" k3="1"/>
<feColorMatrix type="matrix" values="0 0 0 0 0.301961 0 0 0 0 0.00784314 0 0 0 0 0.129412 0 0 0 1 0"/>
<feBlend mode="normal" in2="shape" result="effect1_innerShadow_258_27"/>
</filter>
</defs>
</svg>
